HIERARCHY
ROOT Hips
{
	OFFSET 0.000000 71.427986 0.000000
	CHANNELS 6 Xposition Yposition Zposition Xrotation Yrotation Zrotation
	JOINT Pelvis
	{
		OFFSET 0.000000 0.000000 0.000000
		CHANNELS 3 Xrotation Yrotation Zrotation
		JOINT LeftUpLeg
		{
			OFFSET 6.797100 -2.508499 -1.318700
			CHANNELS 3 Xrotation Yrotation Zrotation
			JOINT LeftLeg
			{
				OFFSET 0.069008 -29.241863 0.690200
				CHANNELS 3 Xrotation Yrotation Zrotation
				JOINT LeftFoot
				{
					OFFSET -0.069008 -29.568123 -0.266800
					CHANNELS 3 Xrotation Yrotation Zrotation
					JOINT LeftToeBase
					{
						OFFSET 3.145500 -8.631000 16.059900
						CHANNELS 3 Xrotation Yrotation Zrotation
						End Site
						{
							OFFSET 0.000000 18.501587 0.000000
						}
					}
				}
			}
			JOINT Left_ShortSleeve
			{
				OFFSET 0.265923 -10.480953 1.153800
				CHANNELS 3 Xrotation Yrotation Zrotation
				End Site
				{
					OFFSET 1.725763 19.823879 0.000000
				}
			}
		}
		JOINT RightUpLeg
		{
			OFFSET -6.797100 -2.508499 -1.318700
			CHANNELS 3 Xrotation Yrotation Zrotation
			JOINT RightLeg
			{
				OFFSET -0.082453 -29.241932 0.688000
				CHANNELS 3 Xrotation Yrotation Zrotation
				JOINT RightFoot
				{
					OFFSET 0.082453 -29.568058 -0.264600
					CHANNELS 3 Xrotation Yrotation Zrotation
					JOINT RightToeBase
					{
						OFFSET -3.115300 -8.682800 16.113400
						CHANNELS 3 Xrotation Yrotation Zrotation
						End Site
						{
							OFFSET 0.000000 18.567114 0.000000
						}
					}
				}
			}
			JOINT Right_ShortSleeve
			{
				OFFSET -0.265923 -10.480953 1.153800
				CHANNELS 3 Xrotation Yrotation Zrotation
				End Site
				{
					OFFSET -1.725766 19.823910 0.000000
				}
			}
		}
	}
	JOINT Spine
	{
		OFFSET 0.000000 13.368103 0.470500
		CHANNELS 3 Xrotation Yrotation Zrotation
		JOINT Spine1
		{
			OFFSET 0.147000 13.837402 0.538800
			CHANNELS 3 Xrotation Yrotation Zrotation
			JOINT Spine2
			{
				OFFSET 0.168000 16.242897 -1.435500
				CHANNELS 3 Xrotation Yrotation Zrotation
				JOINT Neck
				{
					OFFSET 0.217200 18.631500 -1.679100
					CHANNELS 3 Xrotation Yrotation Zrotation
					JOINT Head
					{
						OFFSET 0.000000 6.599396 1.385900
						CHANNELS 3 Xrotation Yrotation Zrotation
						JOINT Hat
						{
							OFFSET -0.532200 27.220596 -10.096100
							CHANNELS 3 Xrotation Yrotation Zrotation
							End Site
							{
								OFFSET 0.000000 22.029861 0.000000
							}
						}
						JOINT HairD
						{
							OFFSET -10.777400 17.437393 -1.325900
							CHANNELS 3 Xrotation Yrotation Zrotation
							JOINT HairD1
							{
								OFFSET -3.290299 -11.051193 1.062200
								CHANNELS 3 Xrotation Yrotation Zrotation
								End Site
								{
									OFFSET 0.000000 11.579437 0.000000
								}
							}
						}
						JOINT HairB
						{
							OFFSET -10.777400 17.437393 1.467900
							CHANNELS 3 Xrotation Yrotation Zrotation
							JOINT HairB1
							{
								OFFSET -1.561200 -12.956299 3.590200
								CHANNELS 3 Xrotation Yrotation Zrotation
								End Site
								{
									OFFSET 0.000000 13.534866 0.000000
								}
							}
						}
						JOINT HairA
						{
							OFFSET 9.713100 17.437393 1.467900
							CHANNELS 3 Xrotation Yrotation Zrotation
							JOINT HairA1
							{
								OFFSET 1.561200 -12.956299 3.590200
								CHANNELS 3 Xrotation Yrotation Zrotation
								End Site
								{
									OFFSET 0.000000 13.534866 0.000000
								}
							}
						}
						JOINT HairC
						{
							OFFSET 9.713100 17.437393 -1.325900
							CHANNELS 3 Xrotation Yrotation Zrotation
							JOINT HairC1
							{
								OFFSET 3.290300 -11.051193 1.062200
								CHANNELS 3 Xrotation Yrotation Zrotation
								End Site
								{
									OFFSET 0.000000 11.579437 0.000000
								}
							}
						}
					}
				}
				JOINT LeftShoulder
				{
					OFFSET 5.101800 15.108002 -2.763700
					CHANNELS 3 Xrotation Yrotation Zrotation
					JOINT LeftArm
					{
						OFFSET 9.825497 2.506317 -1.597400
						CHANNELS 3 Xrotation Yrotation Zrotation
						JOINT LeftForeArm
						{
							OFFSET 21.966244 0.000000 0.000000
							CHANNELS 3 Xrotation Yrotation Zrotation
							JOINT LeftHand
							{
								OFFSET 33.879036 0.000000 0.000000
								CHANNELS 3 Xrotation Yrotation Zrotation
								JOINT LeftHandThumb1
								{
									OFFSET 6.715286 -2.359680 3.363841
									CHANNELS 3 Xrotation Yrotation Zrotation
									JOINT LeftHandThumb2
									{
										OFFSET 2.507072 -1.447464 1.447461
										CHANNELS 3 Xrotation Yrotation Zrotation
										JOINT LeftHandThumb3
										{
											OFFSET 2.898338 -1.673355 1.673357
											CHANNELS 3 Xrotation Yrotation Zrotation
											End Site
											{
												OFFSET -0.295959 3.727692 -0.131651
											}
										}
									}
								}
								JOINT LeftHandIndex1
								{
									OFFSET 14.190811 -0.254547 3.840278
									CHANNELS 3 Xrotation Yrotation Zrotation
									JOINT LeftHandIndex2
									{
										OFFSET 3.551727 0.000000 -0.000000
										CHANNELS 3 Xrotation Yrotation Zrotation
										JOINT LeftHandIndex3
										{
											OFFSET 2.894196 0.000000 0.000000
											CHANNELS 3 Xrotation Yrotation Zrotation
											End Site
											{
												OFFSET -1.000603 2.690872 0.366626
											}
										}
									}
								}
								JOINT LeftHandMiddle1
								{
									OFFSET 13.776489 0.000000 0.000000
									CHANNELS 3 Xrotation Yrotation Zrotation
									JOINT LeftHandMiddle2
									{
										OFFSET 3.438232 0.000000 0.000000
										CHANNELS 3 Xrotation Yrotation Zrotation
										JOINT LeftHandMiddle3
										{
											OFFSET 3.691551 0.000000 0.000000
											CHANNELS 3 Xrotation Yrotation Zrotation
											End Site
											{
												OFFSET -1.082298 3.499527 0.457670
											}
										}
									}
								}
								JOINT LeftHandRing1
								{
									OFFSET 13.966164 -0.268127 -3.067488
									CHANNELS 3 Xrotation Yrotation Zrotation
									JOINT LeftHandRing2
									{
										OFFSET 3.162567 0.000000 0.000000
										CHANNELS 3 Xrotation Yrotation Zrotation
										JOINT LeftHandRing3
										{
											OFFSET 3.324348 0.000000 0.000000
											CHANNELS 3 Xrotation Yrotation Zrotation
											End Site
											{
												OFFSET -0.861900 3.184998 0.405154
											}
										}
									}
								}
								JOINT LeftHandPinky1
								{
									OFFSET 13.131393 -0.168503 -5.746925
									CHANNELS 3 Xrotation Yrotation Zrotation
									JOINT LeftHandPinky2
									{
										OFFSET 2.849182 0.000000 0.000000
										CHANNELS 3 Xrotation Yrotation Zrotation
										JOINT LeftHandPinky3
										{
											OFFSET 2.805038 0.000000 0.000000
											CHANNELS 3 Xrotation Yrotation Zrotation
											End Site
											{
												OFFSET -0.882500 2.642609 0.325652
											}
										}
									}
								}
							}
							JOINT Left_Sleeve
							{
								OFFSET 6.592125 -0.646545 0.805568
								CHANNELS 3 Xrotation Yrotation Zrotation
								End Site
								{
									OFFSET -0.000179 20.275787 -0.000000
								}
							}
						}
					}
				}
				JOINT RightShoulder
				{
					OFFSET -5.731700 15.108002 -2.763700
					CHANNELS 3 Xrotation Yrotation Zrotation
					JOINT RightArm
					{
						OFFSET -9.825497 2.506317 -1.597400
						CHANNELS 3 Xrotation Yrotation Zrotation
						JOINT RightForeArm
						{
							OFFSET -21.966242 0.000000 0.000000
							CHANNELS 3 Xrotation Yrotation Zrotation
							JOINT RightHand
							{
								OFFSET -33.879032 0.000000 0.000000
								CHANNELS 3 Xrotation Yrotation Zrotation
								JOINT RightHandThumb1
								{
									OFFSET -6.715286 -2.359680 3.363841
									CHANNELS 3 Xrotation Yrotation Zrotation
									JOINT RightHandThumb2
									{
										OFFSET -2.507072 -1.447464 1.447461
										CHANNELS 3 Xrotation Yrotation Zrotation
										JOINT RightHandThumb3
										{
											OFFSET -2.898338 -1.673355 1.673357
											CHANNELS 3 Xrotation Yrotation Zrotation
											End Site
											{
												OFFSET 0.295959 3.727692 -0.131651
											}
										}
									}
								}
								JOINT RightHandIndex1
								{
									OFFSET -14.190811 -0.254547 3.840278
									CHANNELS 3 Xrotation Yrotation Zrotation
									JOINT RightHandIndex2
									{
										OFFSET -3.551727 0.000000 -0.000000
										CHANNELS 3 Xrotation Yrotation Zrotation
										JOINT RightHandIndex3
										{
											OFFSET -2.894196 0.000000 0.000000
											CHANNELS 3 Xrotation Yrotation Zrotation
											End Site
											{
												OFFSET 1.000603 2.690872 0.366626
											}
										}
									}
								}
								JOINT RightHandMiddle1
								{
									OFFSET -13.776489 0.000000 0.000000
									CHANNELS 3 Xrotation Yrotation Zrotation
									JOINT RightHandMiddle2
									{
										OFFSET -3.438232 0.000000 0.000000
										CHANNELS 3 Xrotation Yrotation Zrotation
										JOINT RightHandMiddle3
										{
											OFFSET -3.691551 0.000000 0.000000
											CHANNELS 3 Xrotation Yrotation Zrotation
											End Site
											{
												OFFSET 1.082298 3.499527 0.457670
											}
										}
									}
								}
								JOINT RightHandRing1
								{
									OFFSET -13.966164 -0.268127 -3.067488
									CHANNELS 3 Xrotation Yrotation Zrotation
									JOINT RightHandRing2
									{
										OFFSET -3.162567 0.000000 0.000000
										CHANNELS 3 Xrotation Yrotation Zrotation
										JOINT RightHandRing3
										{
											OFFSET -3.324348 0.000000 0.000000
											CHANNELS 3 Xrotation Yrotation Zrotation
											End Site
											{
												OFFSET 0.861900 3.184998 0.405154
											}
										}
									}
								}
								JOINT RightHandPinky1
								{
									OFFSET -13.131393 -0.168503 -5.746925
									CHANNELS 3 Xrotation Yrotation Zrotation
									JOINT RightHandPinky2
									{
										OFFSET -2.849182 0.000000 0.000000
										CHANNELS 3 Xrotation Yrotation Zrotation
										JOINT RightHandPinky3
										{
											OFFSET -2.805038 0.000000 0.000000
											CHANNELS 3 Xrotation Yrotation Zrotation
											End Site
											{
												OFFSET 0.882500 2.642609 0.325652
											}
										}
									}
								}
							}
							JOINT Right_Sleeve
							{
								OFFSET -6.592125 -0.646545 0.805568
								CHANNELS 3 Xrotation Yrotation Zrotation
								End Site
								{
									OFFSET 0.000179 20.275787 -0.000000
								}
							}
						}
					}
				}
				JOINT Bind_Right_JacketString
				{
					OFFSET -3.534800 11.969597 7.200700
					CHANNELS 3 Xrotation Yrotation Zrotation
					JOINT Bind_Right_JacketString1
					{
						OFFSET -0.319900 -6.102600 2.794100
						CHANNELS 3 Xrotation Yrotation Zrotation
						End Site
						{
							OFFSET 0.000000 6.719452 0.000000
						}
					}
				}
				JOINT Bind_Left_JacketString
				{
					OFFSET 2.904800 11.969597 7.200700
					CHANNELS 3 Xrotation Yrotation Zrotation
					JOINT Bind_Left_JacketString1
					{
						OFFSET 0.364800 -5.904503 3.186800
						CHANNELS 3 Xrotation Yrotation Zrotation
						End Site
						{
							OFFSET 0.000000 6.719513 0.000000
						}
					}
				}
				JOINT HairE
				{
					OFFSET 5.915200 17.612701 -11.592200
					CHANNELS 3 Xrotation Yrotation Zrotation
					JOINT HairE1
					{
						OFFSET 0.289200 -7.171898 -1.284500
						CHANNELS 3 Xrotation Yrotation Zrotation
						End Site
						{
							OFFSET 0.000000 7.291756 0.000000
						}
					}
				}
				JOINT HairF
				{
					OFFSET -0.864800 17.612701 -11.592200
					CHANNELS 3 Xrotation Yrotation Zrotation
					JOINT HairF1
					{
						OFFSET 0.000000 -14.087097 -2.127501
						CHANNELS 3 Xrotation Yrotation Zrotation
						End Site
						{
							OFFSET 0.000000 14.246841 0.000000
						}
					}
				}
				JOINT HairG
				{
					OFFSET -8.087700 17.612701 -11.592200
					CHANNELS 3 Xrotation Yrotation Zrotation
					JOINT HairG1
					{
						OFFSET -0.293600 -6.081398 -0.910100
						CHANNELS 3 Xrotation Yrotation Zrotation
						End Site
						{
							OFFSET 0.000000 6.156120 0.000000
						}
					}
				}
			}
		}
	}
	JOINT Pouch
	{
		OFFSET 0.000000 4.394501 10.847300
		CHANNELS 3 Xrotation Yrotation Zrotation
		End Site
		{
			OFFSET 0.000000 21.880577 0.000000
		}
	}
	JOINT Bag
	{
		OFFSET -13.229000 4.813004 -0.593300
		CHANNELS 3 Xrotation Yrotation Zrotation
		End Site
		{
			OFFSET 0.000000 21.880577 0.000000
		}
	}
	JOINT OccupyGuyFacialAnim_Joint
	{
		OFFSET 1.000000 -70.206398 -1.655000
		CHANNELS 3 Xrotation Yrotation Zrotation
		End Site
		{
			OFFSET 0.000000 21.880577 0.000000
		}
	}
}
MOTION
Frames: 4
Frame Time: 0.033333
-0.132583 70.442184 1.126285 3.651972 -3.867506 -0.269567 0.000000 -0.000000 -0.000000 -8.539110 12.646990 9.547371 11.089995 5.011209 2.246966 -5.539646 0.846179 -9.570317 -0.000000 -0.000000 0.000000 0.000000 0.000001 -0.000000 -7.588703 -8.922886 -7.787339 6.146726 1.680063 -2.779556 -2.283166 -0.617886 9.966901 0.000000 -0.000000 0.000000 -0.000000 -0.000000 -0.000001 0.236309 0.366857 -0.110268 0.625690 0.649184 -0.264875 0.621906 0.650150 -0.271816 -12.439031 -1.498030 2.768740 10.339306 3.169969 -2.524217 0.000000 -0.000000 0.000000 0.000000 -0.000000 0.000000 0.000000 -0.000000 0.000000 0.000000 -0.000000 0.000000 0.000000 0.000000 0.000000 0.000000 -0.000000 0.000000 0.000000 0.000000 0.000000 0.000000 -0.000000 0.000000 0.000000 -0.000000 0.000000 1.606029 -11.457051 -9.445177 4.406514 -15.452719 -64.321845 -0.000012 -12.913413 0.000009 1.791429 -1.705611 -8.607735 0.699764 -6.020124 19.223950 19.585701 27.177639 -1.549205 0.000002 -0.000004 -0.000004 0.379877 4.301980 -23.321691 0.889805 3.105653 -31.968629 0.000000 0.000001 -0.000002 2.376578 8.550627 -25.140154 1.497883 3.913335 -41.877300 0.000005 0.000001 0.000001 3.043738 8.434856 -34.988091 1.098225 3.416456 -35.631017 -0.000001 0.000002 -0.000001 3.715598 12.930501 -45.949746 0.690728 2.761601 -28.080048 -0.000001 -0.000001 0.000001 0.000001 -0.000001 0.000002 2.067270 14.950437 10.862823 -4.620101 3.333509 66.443035 -0.000002 7.441544 0.000004 11.053680 0.075627 8.057716 -13.495579 -11.552029 -5.371134 13.662327 -20.557196 -6.832217 -0.000001 -0.000001 0.000003 0.235856 -3.184679 18.636998 0.577247 -2.247671 28.803840 -0.000002 0.000003 0.000003 -0.721468 -1.153689 21.171425 0.926038 -2.789058 36.728772 -0.000001 -0.000005 -0.000003 -0.970442 -2.626035 38.504331 0.361379 -1.800416 22.697467 -0.000002 -0.000001 0.000002 -2.247811 -1.131645 39.316765 0.611950 -2.309614 29.676264 -0.000000 -0.000001 -0.000003 0.000002 -0.000000 0.000000 0.000000 -0.000000 -0.000000 0.000000 -0.000000 -0.000000 0.000000 -0.000000 -0.000000 0.000000 -0.000000 -0.000000 0.000000 -0.000000 -0.000000 0.000000 -0.000000 -0.000000 0.000000 -0.000000 -0.000000 0.000000 -0.000000 -0.000000 0.000000 -0.000000 -0.000000 0.000000 -0.000000 -0.000000 0.000000 -0.000000 -0.000000 0.000000 -0.000000 -0.000000 0.000000 -0.000000 -0.000000 
-0.134525 70.441200 1.105704 3.652972 -3.844900 -0.259045 0.000000 0.000000 -0.000000 -8.548958 12.643484 9.540446 11.062013 4.963019 2.238913 -5.507671 0.843039 -9.570278 -0.000000 0.000000 0.000000 0.000000 -0.000001 -0.000000 -7.574144 -8.929586 -7.792962 6.083001 1.675239 -2.780215 -2.246705 -0.616272 10.010461 0.000000 0.000000 0.000000 -0.000000 0.000001 -0.000000 0.244765 0.368619 -0.096688 0.638490 0.651758 -0.253291 0.634644 0.652967 -0.260209 -12.470351 -1.488217 2.745298 10.319022 3.170546 -2.558187 0.000000 -0.000000 -0.000000 0.000000 -0.000000 -0.000000 0.000000 -0.000000 0.000000 0.000000 -0.000000 0.000000 0.000000 0.000000 0.000000 0.000000 -0.000000 0.000000 0.000000 0.000000 0.000000 0.000000 -0.000000 -0.000000 0.000000 -0.000000 -0.000000 1.602801 -11.480952 -9.468182 4.411591 -15.429430 -64.297939 -0.000004 -12.891378 0.000003 1.819898 -1.693113 -8.608559 0.699763 -6.020124 19.223952 19.562553 27.130264 -1.514775 0.000002 0.000001 -0.000003 0.381206 4.305443 -23.343300 0.889211 3.104668 -31.957540 0.000002 -0.000001 -0.000002 2.389674 8.567965 -25.200816 1.498066 3.913538 -41.879944 -0.000001 0.000001 0.000001 3.043556 8.434587 -34.988286 1.098723 3.417165 -35.639500 -0.000002 -0.000001 -0.000001 3.721692 12.929095 -45.987421 0.691114 2.762333 -28.088130 -0.000000 0.000001 0.000001 0.000001 -0.000001 0.000000 2.069585 14.951458 10.831765 -4.619661 3.353237 66.448656 -0.000000 7.446078 -0.000012 11.058607 0.083473 8.063662 -13.495582 -11.552029 -5.371130 13.666587 -20.592515 -6.822147 0.000000 -0.000001 0.000001 0.236954 -3.190095 18.704972 0.576081 -2.245539 28.773934 0.000001 -0.000000 0.000002 -0.719955 -1.159446 21.183746 0.925790 -2.788723 36.723595 0.000001 -0.000001 0.000001 -0.965354 -2.633856 38.519555 0.360895 -1.799256 22.682042 0.000002 0.000001 0.000003 -2.242349 -1.141793 39.322140 0.613076 -2.311590 29.704271 -0.000000 0.000004 0.000001 0.000001 -0.000001 0.000001 -0.000000 -0.000000 -0.000000 -0.000000 -0.000000 -0.000000 -0.000000 -0.000000 0.000000 -0.000000 -0.000000 0.000000 -0.000000 -0.000000 -0.000000 -0.000000 -0.000000 -0.000000 -0.000000 -0.000000 0.000000 -0.000000 -0.000000 0.000000 -0.000000 -0.000000 -0.000000 -0.000000 -0.000000 -0.000000 0.000000 0.000000 -0.000000 0.000000 0.000000 -0.000000 0.000000 0.000000 -0.000000 
-0.136486 70.440384 1.090981 3.643717 -3.824947 -0.241451 -0.000000 0.000000 0.000000 -8.539911 12.645546 9.527297 11.034416 4.955074 2.228406 -5.476695 0.840035 -9.566231 -0.000000 0.000000 0.000000 -0.000001 0.000000 0.000000 -7.590946 -8.930148 -7.810980 6.112216 1.656832 -2.787806 -2.246180 -0.617504 10.025641 0.000000 0.000000 0.000000 -0.000000 0.000001 -0.000000 0.252675 0.368731 -0.084319 0.650689 0.651330 -0.244628 0.646779 0.652763 -0.251505 -12.489408 -1.486178 2.737128 10.322228 3.163791 -2.566972 0.000000 0.000000 -0.000000 0.000000 0.000000 -0.000000 0.000000 0.000000 -0.000000 0.000000 0.000000 -0.000000 0.000000 -0.000000 -0.000000 0.000000 0.000000 -0.000000 0.000000 -0.000000 -0.000000 0.000000 0.000000 -0.000000 0.000000 0.000000 -0.000000 1.602044 -11.483329 -9.477569 4.410627 -15.421483 -64.295651 -0.000002 -12.866832 0.000027 1.866778 -1.674889 -8.624098 0.699768 -6.020122 19.223950 19.543702 27.091566 -1.486647 0.000002 0.000001 0.000000 0.386099 4.317105 -23.393883 0.887662 3.102183 -31.928761 -0.000000 0.000003 0.000000 2.402987 8.582900 -25.278277 1.497866 3.913303 -41.876873 0.000001 0.000000 0.000001 3.041742 8.431129 -34.997128 1.098918 3.417443 -35.642912 -0.000001 -0.000001 0.000001 3.730021 12.931868 -46.030875 0.691239 2.762568 -28.090825 -0.000001 0.000000 0.000003 -0.000002 0.000000 0.000000 2.068501 14.966176 10.813552 -4.619916 3.366166 66.438999 -0.000005 7.442497 0.000020 11.065033 0.081614 8.079299 -13.495577 -11.552026 -5.371132 13.674236 -20.655984 -6.804157 0.000004 0.000000 0.000003 0.237676 -3.192870 18.758753 0.576737 -2.246730 28.790620 0.000002 0.000000 0.000000 -0.714650 -1.173916 21.188019 0.925027 -2.787710 36.708138 0.000001 -0.000001 -0.000001 -0.953701 -2.647685 38.509833 0.360387 -1.798034 22.665682 0.000003 -0.000002 0.000001 -2.238084 -1.152044 39.320262 0.613759 -2.312778 29.721278 -0.000000 0.000001 0.000001 0.000001 -0.000000 -0.000000 -0.000000 0.000000 0.000000 0.000000 0.000000 0.000000 -0.000000 0.000000 -0.000000 -0.000000 0.000000 -0.000000 -0.000000 0.000000 0.000000 0.000000 0.000000 0.000000 -0.000000 0.000000 -0.000000 -0.000000 0.000000 -0.000000 -0.000000 0.000000 0.000000 0.000000 0.000000 0.000000 -0.000000 0.000000 0.000000 -0.000000 0.000000 0.000000 -0.000000 0.000000 0.000000 
-0.137603 70.440521 1.081640 3.629913 -3.806611 -0.223379 -0.000000 0.000000 -0.000000 -8.531150 12.645254 9.509847 11.027436 4.940914 2.221572 -5.462679 0.837962 -9.549458 -0.000000 -0.000000 -0.000000 -0.000000 -0.000001 -0.000000 -7.582851 -8.935624 -7.826964 6.107428 1.638367 -2.796221 -2.235485 -0.617666 10.048588 0.000000 0.000000 0.000000 -0.000000 -0.000001 -0.000000 0.258093 0.368950 -0.070216 0.659005 0.650918 -0.236163 0.655024 0.652549 -0.243015 -12.494872 -1.490152 2.742098 10.341405 3.154017 -2.556776 0.000000 0.000000 -0.000000 0.000000 0.000000 -0.000000 0.000000 0.000000 0.000000 0.000000 0.000000 0.000000 0.000000 0.000000 -0.000000 0.000000 0.000000 0.000000 0.000000 0.000000 -0.000000 0.000000 0.000000 -0.000000 0.000000 0.000000 -0.000000 1.602622 -11.477905 -9.474923 4.413001 -15.428585 -64.314823 -0.000001 -12.857053 0.000010 1.911220 -1.661034 -8.641054 0.699766 -6.020122 19.223952 19.538289 27.080544 -1.478649 -0.000000 -0.000003 -0.000004 0.393535 4.330892 -23.445109 0.886726 3.100691 -31.911576 -0.000002 -0.000000 -0.000002 2.404018 8.577973 -25.321086 1.497613 3.913032 -41.873257 0.000002 0.000003 0.000008 3.041774 8.429467 -35.014292 1.098709 3.417151 -35.639299 0.000001 -0.000000 -0.000000 3.739047 12.946652 -46.057622 0.693639 2.767059 -28.140589 0.000000 0.000003 0.000003 0.000003 -0.000000 0.000000 2.067568 14.975878 10.804329 -4.591241 3.394727 66.409533 0.000008 7.456297 -0.000008 11.038118 0.076749 8.098758 -13.495584 -11.552030 -5.371133 13.685456 -20.749502 -6.777732 -0.000000 0.000000 0.000003 0.237847 -3.194123 18.763518 0.581138 -2.254720 28.902669 -0.000003 0.000002 0.000006 -0.699826 -1.209535 21.166789 0.924736 -2.787325 36.702052 0.000001 0.000000 0.000003 -0.933897 -2.670114 38.481269 0.360150 -1.797472 22.658246 0.000004 -0.000001 -0.000000 -2.230400 -1.171801 39.303798 0.613656 -2.312609 29.718836 -0.000001 0.000000 0.000001 -0.000001 -0.000001 0.000001 -0.000000 -0.000000 0.000000 0.000000 0.000000 -0.000000 -0.000000 -0.000000 0.000000 -0.000000 -0.000000 0.000000 -0.000000 -0.000000 0.000000 0.000000 0.000000 -0.000000 -0.000000 -0.000000 0.000000 -0.000000 -0.000000 0.000000 -0.000000 -0.000000 0.000000 0.000000 0.000000 -0.000000 -0.000000 0.000000 -0.000000 -0.000000 0.000000 -0.000000 -0.000000 0.000000 -0.000000 
